<svg xmlns="http://www.w3.org/2000/svg" version="1.1" xmlns:xlink="http://www.w3.org/1999/xlink" xmlns:svgjs="http://svgjs.dev/svgjs" width="1500" height="1452" viewBox="0 0 1500 1452"><g transform="matrix(1,0,0,1,-0.5722287990106452,0.5878542510121179)"><svg viewBox="0 0 255 247" data-background-color="#4b91f1" preserveAspectRatio="xMidYMid meet" height="1452" width="1500" xmlns="http://www.w3.org/2000/svg" xmlns:xlink="http://www.w3.org/1999/xlink"><g id="tight-bounds" transform="matrix(1,0,0,1,0.09727889583180627,-0.09999999999999432)"><svg viewBox="0 0 254.8054422083364 247.2" height="247.2" width="254.8054422083364"><g><svg viewBox="0 0 395.52 383.71450449656527" height="247.2" width="254.8054422083364"><g transform="matrix(1,0,0,1,0,265.6851367772041)"><svg viewBox="0 0 395.52 118.0293677193612" height="118.0293677193612" width="395.52"><g id="textblocktransform"><svg viewBox="0 0 395.52 118.0293677193612" height="118.0293677193612" width="395.52" id="textblock"><g><rect width="75.54432" height="7.726721252337195" y="108.10489055742525" fill="#ffffff" data-fill-palette-color="tertiary"></rect><rect width="75.54432" height="7.726721252337195" y="108.10489055742525" x="319.97568" fill="#ffffff" data-fill-palette-color="tertiary"></rect></g><g><svg viewBox="0 0 395.52 85.68011566265059" height="85.68011566265059" width="395.52"><g transform="matrix(1,0,0,1,0,0)"><svg width="395.52" viewBox="4.25 -34.4 207.48 44.95" height="85.68011566265059" data-palette-color="#ffffff"><path d="M4.25-34.4L8.9-34.4 8.9-3.95 21.45-3.95 20.95 0 4.25 0 4.25-34.4ZM42.6-6Q42.6-4.4 43.05-3.63 43.5-2.85 44.45-2.45L44.45-2.45 43.5 0.6Q41.55 0.3 40.45-0.6 39.35-1.5 38.9-3.35L38.9-3.35Q36.35 0.65 31.75 0.65L31.75 0.65Q28.25 0.65 26.2-1.53 24.15-3.7 24.15-7.35L24.15-7.35Q24.15-11.55 26.9-13.75 29.65-15.95 34.75-15.95L34.75-15.95 38.15-15.95 38.15-18.2Q38.15-20.95 37.02-22.18 35.9-23.4 33.35-23.4L33.35-23.4Q30.6-23.4 26.95-22L26.95-22 25.85-25.15Q30.25-26.95 34.05-26.95L34.05-26.95Q42.6-26.95 42.6-18.4L42.6-18.4 42.6-6ZM32.8-2.75Q36.3-2.75 38.15-6.85L38.15-6.85 38.15-13.05 35.25-13.05Q28.75-13.05 28.75-7.6L28.75-7.6Q28.75-5.25 29.8-4 30.85-2.75 32.8-2.75L32.8-2.75ZM62.45-26.95Q65.59-26.95 67.37-24.88 69.15-22.8 69.15-19.15L69.15-19.15 69.15 0 64.65 0 64.65-18.6Q64.65-21.15 63.8-22.28 62.95-23.4 61.2-23.4L61.2-23.4Q57.9-23.4 55.2-18.7L55.2-18.7 55.2 0 50.7 0 50.7-26.3 54.6-26.3 54.95-22.4Q58-26.95 62.45-26.95L62.45-26.95ZM95.09-29.15L96.34-25.35Q94.19-24.5 89.69-24.5L89.69-24.5Q93.89-22.4 93.89-17.6L93.89-17.6Q93.89-13.65 91.42-11.23 88.94-8.8 84.69-8.8L84.69-8.8Q83.09-8.8 81.79-9.3L81.79-9.3Q80.39-8.3 80.39-6.75L80.39-6.75Q80.39-4.4 83.69-4.4L83.69-4.4 87.14-4.4Q91.04-4.4 93.34-2.43 95.64-0.45 95.64 2.6L95.64 2.6Q95.64 6.3 92.79 8.43 89.94 10.55 84.44 10.55L84.44 10.55Q78.74 10.55 76.37 8.6 73.99 6.65 73.99 2.65L73.99 2.65 78.04 2.65Q78.04 4.3 78.62 5.28 79.19 6.25 80.57 6.73 81.94 7.2 84.49 7.2L84.49 7.2Q88.04 7.2 89.59 6.1 91.14 5 91.14 2.95L91.14 2.95Q91.14 1.05 89.87 0.05 88.59-0.95 86.24-0.95L86.24-0.95 83.29-0.95Q79.84-0.95 78.14-2.27 76.44-3.6 76.44-5.8L76.44-5.8Q76.44-8.35 79.19-10.35L79.19-10.35Q77.09-11.55 76.07-13.38 75.04-15.2 75.04-17.8L75.04-17.8Q75.04-21.9 77.64-24.4 80.24-26.9 84.49-26.9L84.49-26.9Q88.44-26.9 90.62-27.45 92.79-28 95.09-29.15L95.09-29.15ZM84.54-23.75Q82.09-23.75 80.82-22.23 79.54-20.7 79.54-17.8L79.54-17.8Q79.54-15 80.87-13.43 82.19-11.85 84.54-11.85L84.54-11.85Q89.49-11.85 89.49-17.85L89.49-17.85Q89.49-20.75 88.24-22.25 86.99-23.75 84.54-23.75L84.54-23.75ZM109.69-26.95Q114.74-26.95 117.54-23.4 120.34-19.85 120.34-13.2L120.34-13.2Q120.34-6.8 117.49-3.08 114.64 0.65 109.64 0.65L109.64 0.65Q104.59 0.65 101.77-3 98.94-6.65 98.94-13.15L98.94-13.15Q98.94-19.7 101.79-23.33 104.64-26.95 109.69-26.95L109.69-26.95ZM109.69-23.35Q106.74-23.35 105.19-20.88 103.64-18.4 103.64-13.15L103.64-13.15Q103.64-2.9 109.64-2.9L109.64-2.9Q115.64-2.9 115.64-13.2L115.64-13.2Q115.64-18.45 114.14-20.9 112.64-23.35 109.69-23.35L109.69-23.35ZM160.49 0L155.69 0 153.39-8.75 141.84-8.75 139.54 0 134.89 0 144.84-34.4 150.54-34.4 160.49 0ZM147.64-30.7L142.79-12.4 152.44-12.4 147.64-30.7ZM172.88-34.4Q179.08-34.4 182.33-31.75 185.58-29.1 185.58-23.8L185.58-23.8Q185.58-18.2 182.26-15.48 178.93-12.75 173.03-12.75L173.03-12.75 169.73-12.75 169.73 0 165.08 0 165.08-34.4 172.88-34.4ZM172.88-16.35Q176.83-16.35 178.78-18 180.73-19.65 180.73-23.75L180.73-23.75Q180.73-27.5 178.81-29.18 176.88-30.85 172.93-30.85L172.93-30.85 169.73-30.85 169.73-16.35 172.88-16.35ZM199.03-34.4Q205.23-34.4 208.48-31.75 211.73-29.1 211.73-23.8L211.73-23.8Q211.73-18.2 208.41-15.48 205.08-12.75 199.18-12.75L199.18-12.75 195.88-12.75 195.88 0 191.23 0 191.23-34.4 199.03-34.4ZM199.03-16.35Q202.98-16.35 204.93-18 206.88-19.65 206.88-23.75L206.88-23.75Q206.88-27.5 204.96-29.18 203.03-30.85 199.08-30.85L199.08-30.85 195.88-30.85 195.88-16.35 199.03-16.35Z" opacity="1" transform="matrix(1,0,0,1,0,0)" fill="#ffffff" class="wordmark-text-0" data-fill-palette-color="primary" id="text-0"></path></svg></g></svg></g><g transform="matrix(1,0,0,1,75.54432,105.9071346478265)"><svg viewBox="0 0 244.43135999999998 12.122233071534703" height="12.122233071534703" width="244.43135999999998"><g transform="matrix(1,0,0,1,8,0)"><svg width="228.43135999999998" viewBox="4 -37.5 942.09 50" height="12.122233071534703" data-palette-color="#ffffff"><path d="M24.8 0L4 0 4-35 8.75-35 8.75-4.3 24.8-4.3 24.8 0ZM39.35 0.5L39.35 0.5Q35.02 0.5 32.07-1.28 29.12-3.05 27.61-5.99 26.1-8.93 26.1-12.45L26.1-12.45Q26.1-15.88 27.51-18.73 28.92-21.58 31.61-23.29 34.3-25 38.1-25L38.1-25Q41.15-25 43.53-23.79 45.92-22.58 47.28-20.26 48.65-17.95 48.65-14.65L48.65-14.65Q48.65-14.13 48.61-13.51 48.57-12.9 48.45-12.25L48.45-12.25 30.7-12.25Q31.02-8.85 32.32-6.95 33.62-5.05 35.6-4.28 37.57-3.5 39.9-3.5L39.9-3.5Q41.6-3.5 43.45-3.85 45.3-4.2 46.95-4.95L46.95-4.95 47.55-1.4Q46.12-0.78 44.07-0.14 42.02 0.5 39.35 0.5ZM31.1-15.35L31.1-15.35 44-15.35Q44-17.07 43.35-18.35 42.7-19.63 41.37-20.31 40.05-21 38-21L38-21Q35-21 33.38-19.51 31.77-18.03 31.1-15.35ZM58.9 0.5L58.9 0.5Q56.62 0.5 54.92-0.43 53.22-1.35 52.28-2.95 51.35-4.55 51.35-6.6L51.35-6.6Q51.35-8.68 52.26-10.16 53.17-11.65 54.71-12.64 56.25-13.63 58.15-14.21 60.05-14.8 62.08-15.06 64.12-15.33 66-15.35L66-15.35Q66-18.85 64.62-19.93 63.25-21 60.65-21L60.65-21Q59.27-21 57.71-20.58 56.15-20.15 54.2-18.8L54.2-18.8 53.55-22.45Q55.02-23.58 57.22-24.29 59.42-25 61.85-25L61.85-25Q64.95-25 66.84-23.91 68.75-22.83 69.62-20.25 70.5-17.68 70.5-13.25L70.5-13.25 70.5-8.25Q70.5-6.5 70.66-5.36 70.82-4.23 71.41-3.66 72-3.1 73.3-3.1L73.3-3.1 73.75-3.1 73.05 0.5 72.7 0.5Q70.52 0.5 69.33 0.08 68.15-0.35 67.52-1.15 66.9-1.95 66.4-3.1L66.4-3.1Q65.02-1.5 63.15-0.5 61.27 0.5 58.9 0.5ZM59.75-3.1L59.75-3.1Q61.55-3.1 63.23-4 64.92-4.9 66-6.4L66-6.4 66-12.25Q62.42-12.13 60.21-11.55 58-10.98 56.97-9.83 55.95-8.68 55.95-6.85L55.95-6.85Q55.95-4.88 57.01-3.99 58.07-3.1 59.75-3.1ZM81.99 0L77.19 0 77.19-24.5 80.89-24.5 81.44-20.45Q83.32-22.78 85.03-23.89 86.74-25 88.69-25L88.69-25Q89.32-25 89.84-24.85L89.84-24.85 89.39-19.9Q89.07-19.98 88.71-20.01 88.34-20.05 87.89-20.05L87.89-20.05Q85.94-20.05 84.31-19.19 82.67-18.32 81.99-17.3L81.99-17.3 81.99 0ZM97.49 0L92.99 0 92.99-24.5 96.49-24.5 97.39-19.8 95.64-20.55Q98.12-23.3 100.48-24.15 102.84-25 105.09-25L105.09-25Q110.47-25 112.78-21.9 115.09-18.8 115.09-13.5L115.09-13.5 115.09 0 110.59 0 110.59-13.5Q110.59-17.4 109.14-19.2 107.69-21 104.19-21L104.19-21Q101.72-21 99.65-19.91 97.59-18.82 96.94-16.45L96.94-16.45 97.49-19.2 97.49 0ZM143.94 0.5L143.94 0.5Q139.61 0.5 136.66-1.28 133.71-3.05 132.2-5.99 130.69-8.93 130.69-12.45L130.69-12.45Q130.69-15.88 132.1-18.73 133.51-21.58 136.2-23.29 138.89-25 142.69-25L142.69-25Q145.74-25 148.12-23.79 150.51-22.58 151.87-20.26 153.24-17.95 153.24-14.65L153.24-14.65Q153.24-14.13 153.2-13.51 153.16-12.9 153.04-12.25L153.04-12.25 135.29-12.25Q135.61-8.85 136.91-6.95 138.21-5.05 140.19-4.28 142.16-3.5 144.49-3.5L144.49-3.5Q146.19-3.5 148.04-3.85 149.89-4.2 151.54-4.95L151.54-4.95 152.14-1.4Q150.71-0.78 148.66-0.14 146.61 0.5 143.94 0.5ZM135.69-15.35L135.69-15.35 148.59-15.35Q148.59-17.07 147.94-18.35 147.29-19.63 145.96-20.31 144.64-21 142.59-21L142.59-21Q139.59-21 137.97-19.51 136.36-18.03 135.69-15.35ZM169.38 0L164.33 0 154.98-24.5 159.98-24.5 166.83-4.95 173.63-24.5 178.68-24.5 169.38 0ZM193.48 0.5L193.48 0.5Q189.16 0.5 186.21-1.28 183.26-3.05 181.74-5.99 180.23-8.93 180.23-12.45L180.23-12.45Q180.23-15.88 181.64-18.73 183.06-21.58 185.74-23.29 188.43-25 192.23-25L192.23-25Q195.28-25 197.67-23.79 200.06-22.58 201.42-20.26 202.78-17.95 202.78-14.65L202.78-14.65Q202.78-14.13 202.74-13.51 202.71-12.9 202.58-12.25L202.58-12.25 184.83-12.25Q185.16-8.85 186.46-6.95 187.76-5.05 189.73-4.28 191.71-3.5 194.03-3.5L194.03-3.5Q195.73-3.5 197.58-3.85 199.43-4.2 201.08-4.95L201.08-4.95 201.68-1.4Q200.26-0.78 198.21-0.14 196.16 0.5 193.48 0.5ZM185.23-15.35L185.23-15.35 198.13-15.35Q198.13-17.07 197.48-18.35 196.83-19.63 195.51-20.31 194.18-21 192.13-21L192.13-21Q189.13-21 187.52-19.51 185.91-18.03 185.23-15.35ZM212.13 0L207.33 0 207.33-24.5 211.03-24.5 211.58-20.45Q213.45-22.78 215.17-23.89 216.88-25 218.83-25L218.83-25Q219.45-25 219.98-24.85L219.98-24.85 219.53-19.9Q219.2-19.98 218.84-20.01 218.48-20.05 218.03-20.05L218.03-20.05Q216.08-20.05 214.44-19.19 212.8-18.32 212.13-17.3L212.13-17.3 212.13 0ZM229.98 12.1L224.98 12.1 230.63-1.1 220.43-24.5 225.43-24.5 233.08-6.3 239.98-24.5 244.98-24.5 229.98 12.1ZM260.87 0.5L256.82 0.5Q254.5 0.5 253.1-0.35 251.7-1.2 251.06-2.54 250.42-3.88 250.42-5.35L250.42-5.35 250.42-21 246.22-21 246.62-24.5 250.42-24.5 250.42-30.55 254.92-31 254.92-24.5 261.37-24.5 261.37-21 254.92-21 254.92-8.1Q254.92-5.75 255.2-4.7 255.47-3.65 256.56-3.38 257.65-3.1 260.07-3.1L260.07-3.1 261.22-3.1 260.87 0.5ZM269.72 0L265.17 0 265.17-37.5 269.72-37.5 269.72-20.25 268.12-20.35Q269.85-22.53 271.83-23.76 273.82-25 276.92-25L276.92-25Q280.1-25 282.22-23.58 284.35-22.15 285.41-19.6 286.47-17.05 286.47-13.65L286.47-13.65 286.47 0 281.97 0 281.97-13.1Q281.97-17.15 280.48-19.07 279-21 275.92-21L275.92-21Q273.6-21 271.81-19.75 270.02-18.5 268.97-16.4L268.97-16.4 269.72-19.15 269.72 0ZM296.82 0L292.32 0 292.32-24.5 296.82-24.5 296.82 0ZM296.82-30L292.32-30 292.32-35 296.82-35 296.82-30ZM307.42 0L302.92 0 302.92-24.5 306.42-24.5 307.32-19.8 305.57-20.55Q308.04-23.3 310.4-24.15 312.77-25 315.02-25L315.02-25Q320.39-25 322.7-21.9 325.02-18.8 325.02-13.5L325.02-13.5 325.02 0 320.52 0 320.52-13.5Q320.52-17.4 319.07-19.2 317.62-21 314.12-21L314.12-21Q311.64-21 309.58-19.91 307.52-18.82 306.87-16.45L306.87-16.45 307.42-19.2 307.42 0ZM340.76 12.5L340.76 12.5Q337.41 12.5 334.78 11.68 332.14 10.85 330.63 9.22 329.11 7.6 329.11 5.2L329.11 5.2Q329.11 3.2 330.25 1.76 331.39 0.33 333.36-0.55L333.36-0.55Q332.19-1.13 331.58-1.91 330.96-2.7 330.96-3.65L330.96-3.65Q330.96-4.78 331.65-5.69 332.34-6.6 333.86-7.2L333.86-7.2Q331.81-8.47 330.71-10.64 329.61-12.8 329.61-15.45L329.61-15.45Q329.61-18.13 330.81-20.29 332.01-22.45 334.28-23.73 336.54-25 339.71-25L339.71-25Q341.41-25 342.93-24.5 344.44-24 345.71-23.1L345.71-23.1Q346.84-23.75 348.38-24.18 349.91-24.6 351.81-24.6L351.81-24.6Q351.94-24.6 352.03-24.6 352.11-24.6 352.21-24.6L352.21-24.6 351.66-21.6Q351.36-21.6 351.09-21.6 350.81-21.6 350.51-21.6L350.51-21.6Q350.26-21.6 349.36-21.53 348.46-21.45 347.71-21.25L347.71-21.25Q348.74-20.05 349.3-18.56 349.86-17.07 349.86-15.45L349.86-15.45Q349.86-12.65 348.65-10.44 347.44-8.22 345.16-6.94 342.89-5.65 339.71-5.65L339.71-5.65Q338.81-5.65 337.99-5.76 337.16-5.88 336.41-6.1L336.41-6.1Q335.26-5.73 335.26-4.8L335.26-4.8Q335.26-4.25 335.91-3.84 336.56-3.43 338.01-3.2L338.01-3.2 344.56-2.15Q348.54-1.53 350.7 0.15 352.86 1.83 352.86 4.9L352.86 4.9Q352.86 7.45 351.38 9.14 349.89 10.83 347.16 11.66 344.44 12.5 340.76 12.5ZM341.16 8.5L341.16 8.5Q344.61 8.5 346.46 7.61 348.31 6.73 348.31 5L348.31 5Q348.31 3.65 347.15 2.88 345.99 2.1 343.81 1.7L343.81 1.7 336.84 0.53Q335.46 1.13 334.44 2.14 333.41 3.15 333.41 4.5L333.41 4.5Q333.41 6.6 335.53 7.55 337.64 8.5 341.16 8.5ZM339.71-9.25L339.71-9.25Q342.56-9.25 344.06-10.96 345.56-12.68 345.56-15.4L345.56-15.4Q345.56-18.03 344.06-19.71 342.56-21.4 339.71-21.4L339.71-21.4Q336.86-21.4 335.39-19.71 333.91-18.03 333.91-15.4L333.91-15.4Q333.91-12.68 335.39-10.96 336.86-9.25 339.71-9.25ZM371.51 0L367.01 0 367.01-24.5 371.51-24.5 371.51 0ZM371.51-30L367.01-30 367.01-35 371.51-35 371.51-30ZM382.11 0L377.61 0 377.61-24.5 381.11-24.5 382.01-19.8 380.26-20.55Q382.73-23.3 385.09-24.15 387.46-25 389.71-25L389.71-25Q395.08-25 397.39-21.9 399.71-18.8 399.71-13.5L399.71-13.5 399.71 0 395.21 0 395.21-13.5Q395.21-17.4 393.76-19.2 392.31-21 388.81-21L388.81-21Q386.33-21 384.27-19.91 382.21-18.82 381.56-16.45L381.56-16.45 382.11-19.2 382.11 0ZM422.5 0.5L422.5 0.5Q420.23 0.5 418.53-0.43 416.83-1.35 415.89-2.95 414.95-4.55 414.95-6.6L414.95-6.6Q414.95-8.68 415.86-10.16 416.78-11.65 418.31-12.64 419.85-13.63 421.75-14.21 423.65-14.8 425.69-15.06 427.73-15.33 429.6-15.35L429.6-15.35Q429.6-18.85 428.23-19.93 426.85-21 424.25-21L424.25-21Q422.88-21 421.31-20.58 419.75-20.15 417.8-18.8L417.8-18.8 417.15-22.45Q418.63-23.58 420.83-24.29 423.03-25 425.45-25L425.45-25Q428.55-25 430.45-23.91 432.35-22.83 433.23-20.25 434.1-17.68 434.1-13.25L434.1-13.25 434.1-8.25Q434.1-6.5 434.26-5.36 434.43-4.23 435.01-3.66 435.6-3.1 436.9-3.1L436.9-3.1 437.35-3.1 436.65 0.5 436.3 0.5Q434.13 0.5 432.94 0.08 431.75-0.35 431.13-1.15 430.5-1.95 430-3.1L430-3.1Q428.63-1.5 426.75-0.5 424.88 0.5 422.5 0.5ZM423.35-3.1L423.35-3.1Q425.15-3.1 426.84-4 428.53-4.9 429.6-6.4L429.6-6.4 429.6-12.25Q426.03-12.13 423.81-11.55 421.6-10.98 420.58-9.83 419.55-8.68 419.55-6.85L419.55-6.85Q419.55-4.88 420.61-3.99 421.68-3.1 423.35-3.1ZM473.8 12.1L469.3 12.1 469.3-5.25 470.05-4.35Q469.05-1.93 466.78-0.71 464.52 0.5 461.6 0.5L461.6 0.5Q457.97 0.5 455.53-1.2 453.1-2.9 451.87-5.79 450.65-8.68 450.65-12.25L450.65-12.25Q450.65-15.6 451.95-18.51 453.25-21.43 455.68-23.21 458.12-25 461.55-25L461.55-25Q465-25 467.11-23.64 469.22-22.28 470.75-19.8L470.75-19.8 469.5-18.9 470.3-24.5 473.8-24.5 473.8 12.1ZM462.2-3.5L462.2-3.5Q464.22-3.5 465.88-4.41 467.55-5.33 468.55-7.25 469.55-9.18 469.55-12.25L469.55-12.25Q469.55-16.68 467.4-18.84 465.25-21 462.2-21L462.2-21Q458.95-21 457.1-18.69 455.25-16.38 455.25-12.25L455.25-12.25Q455.25-8.13 457.1-5.81 458.95-3.5 462.2-3.5ZM488.69 0.5L488.69 0.5Q485.82 0.5 483.79-0.66 481.77-1.83 480.71-4.2 479.64-6.58 479.64-10.25L479.64-10.25 479.64-24.5 484.14-24.5 484.14-11.5Q484.14-7.6 485.48-5.55 486.82-3.5 489.84-3.5L489.84-3.5Q491.92-3.5 493.69-4.5 495.47-5.5 496.14-7.7L496.14-7.7 495.49-5.25 495.49-24.5 499.99-24.5 499.99 0 495.99 0 495.09-4.8 496.29-4Q495.07-1.73 493.31-0.61 491.54 0.5 488.69 0.5ZM510.59 0L506.09 0 506.09-24.5 510.59-24.5 510.59 0ZM510.59-30L506.09-30 506.09-35 510.59-35 510.59-30ZM527.94 0.5L527.94 0.5Q523.79 0.5 520.98-1.19 518.16-2.88 516.73-5.74 515.29-8.6 515.29-12.1L515.29-12.1Q515.29-15.75 516.68-18.68 518.06-21.6 520.94-23.3 523.81-25 528.29-25L528.29-25Q530.21-25 531.93-24.61 533.64-24.23 534.99-23.55L534.99-23.55 534.29-19.6Q532.91-20.25 531.38-20.63 529.84-21 528.19-21L528.19-21Q524.14-21 522.01-18.7 519.89-16.4 519.89-12.3L519.89-12.3Q519.89-8.3 521.91-5.88 523.94-3.45 528.09-3.45L528.09-3.45Q529.79-3.45 531.35-3.85 532.91-4.25 534.34-4.95L534.34-4.95 534.94-1.35Q533.94-0.65 532.01-0.08 530.09 0.5 527.94 0.5ZM543.84 0L539.34 0 539.34-37.5 543.84-37.5 543.84-13.45 552.84-24.5 558.34-24.5 548.59-13.1 558.59 0 553.09 0 543.84-12.45 543.84 0ZM578.73 0.5L578.73 0.5Q576.45 0.5 574.75-0.43 573.05-1.35 572.12-2.95 571.18-4.55 571.18-6.6L571.18-6.6Q571.18-8.68 572.09-10.16 573-11.65 574.54-12.64 576.08-13.63 577.98-14.21 579.88-14.8 581.92-15.06 583.95-15.33 585.83-15.35L585.83-15.35Q585.83-18.85 584.45-19.93 583.08-21 580.48-21L580.48-21Q579.1-21 577.54-20.58 575.98-20.15 574.03-18.8L574.03-18.8 573.38-22.45Q574.85-23.58 577.05-24.29 579.25-25 581.68-25L581.68-25Q584.78-25 586.68-23.91 588.58-22.83 589.45-20.25 590.33-17.68 590.33-13.25L590.33-13.25 590.33-8.25Q590.33-6.5 590.49-5.36 590.65-4.23 591.24-3.66 591.83-3.1 593.13-3.1L593.13-3.1 593.58-3.1 592.88 0.5 592.53 0.5Q590.35 0.5 589.17 0.08 587.98-0.35 587.35-1.15 586.73-1.95 586.23-3.1L586.23-3.1Q584.85-1.5 582.98-0.5 581.1 0.5 578.73 0.5ZM579.58-3.1L579.58-3.1Q581.38-3.1 583.07-4 584.75-4.9 585.83-6.4L585.83-6.4 585.83-12.25Q582.25-12.13 580.04-11.55 577.83-10.98 576.8-9.83 575.78-8.68 575.78-6.85L575.78-6.85Q575.78-4.88 576.84-3.99 577.9-3.1 579.58-3.1ZM601.53 0L597.03 0 597.03-24.5 600.53-24.5 601.43-19.8 599.68-20.55Q602.15-23.3 604.51-24.15 606.88-25 609.13-25L609.13-25Q614.5-25 616.81-21.9 619.13-18.8 619.13-13.5L619.13-13.5 619.13 0 614.63 0 614.63-13.5Q614.63-17.4 613.18-19.2 611.73-21 608.23-21L608.23-21Q605.75-21 603.69-19.91 601.63-18.82 600.98-16.45L600.98-16.45 601.53-19.2 601.53 0ZM634.67 0.5L634.67 0.5Q631.55 0.5 629.02-1.2 626.5-2.9 625.01-5.78 623.52-8.65 623.52-12.2L623.52-12.2Q623.52-15.58 624.89-18.5 626.25-21.43 628.75-23.21 631.25-25 634.67-25L634.67-25Q637.12-25 639.41-23.94 641.7-22.88 643.12-20.4L643.12-20.4 642.17-19.75 642.17-37.5 646.67-37.5 646.67 0 642.67 0 641.82-5.2 642.97-4.4Q641.9-1.98 639.6-0.74 637.3 0.5 634.67 0.5ZM635.47-3.5L635.47-3.5Q637.17-3.5 638.84-4.38 640.5-5.25 641.59-7.16 642.67-9.08 642.67-12.2L642.67-12.2Q642.67-15.1 641.59-17.06 640.5-19.03 638.84-20.01 637.17-21 635.47-21L635.47-21Q633.17-21 631.52-19.85 629.87-18.7 629-16.71 628.12-14.73 628.12-12.2L628.12-12.2Q628.12-9.83 629-7.85 629.87-5.88 631.52-4.69 633.17-3.5 635.47-3.5ZM669.67 0.5L669.67 0.5Q667.39 0.5 665.69-0.43 663.99-1.35 663.06-2.95 662.12-4.55 662.12-6.6L662.12-6.6Q662.12-8.68 663.03-10.16 663.94-11.65 665.48-12.64 667.02-13.63 668.92-14.21 670.82-14.8 672.86-15.06 674.89-15.33 676.77-15.35L676.77-15.35Q676.77-18.85 675.39-19.93 674.02-21 671.42-21L671.42-21Q670.04-21 668.48-20.58 666.92-20.15 664.97-18.8L664.97-18.8 664.32-22.45Q665.79-23.58 667.99-24.29 670.19-25 672.62-25L672.62-25Q675.72-25 677.62-23.91 679.52-22.83 680.39-20.25 681.27-17.68 681.27-13.25L681.27-13.25 681.27-8.25Q681.27-6.5 681.43-5.36 681.59-4.23 682.18-3.66 682.77-3.1 684.07-3.1L684.07-3.1 684.52-3.1 683.82 0.5 683.47 0.5Q681.29 0.5 680.11 0.08 678.92-0.35 678.29-1.15 677.67-1.95 677.17-3.1L677.17-3.1Q675.79-1.5 673.92-0.5 672.04 0.5 669.67 0.5ZM670.52-3.1L670.52-3.1Q672.32-3.1 674.01-4 675.69-4.9 676.77-6.4L676.77-6.4 676.77-12.25Q673.19-12.13 670.98-11.55 668.77-10.98 667.74-9.83 666.72-8.68 666.72-6.85L666.72-6.85Q666.72-4.88 667.78-3.99 668.84-3.1 670.52-3.1ZM697.67 0.5L697.67 0.5Q694.54 0.5 692.02-1.2 689.49-2.9 688-5.78 686.52-8.65 686.52-12.2L686.52-12.2Q686.52-15.58 687.88-18.5 689.24-21.43 691.74-23.21 694.24-25 697.67-25L697.67-25Q700.12-25 702.4-23.94 704.69-22.88 706.12-20.4L706.12-20.4 705.17-19.75 705.17-37.5 709.67-37.5 709.67 0 705.67 0 704.82-5.2 705.97-4.4Q704.89-1.98 702.59-0.74 700.29 0.5 697.67 0.5ZM698.47-3.5L698.47-3.5Q700.17-3.5 701.83-4.38 703.49-5.25 704.58-7.16 705.67-9.08 705.67-12.2L705.67-12.2Q705.67-15.1 704.58-17.06 703.49-19.03 701.83-20.01 700.17-21 698.47-21L698.47-21Q696.17-21 694.52-19.85 692.87-18.7 691.99-16.71 691.12-14.73 691.12-12.2L691.12-12.2Q691.12-9.83 691.99-7.85 692.87-5.88 694.52-4.69 696.17-3.5 698.47-3.5ZM725.41 0.5L725.41 0.5Q722.29 0.5 719.76-1.2 717.24-2.9 715.75-5.78 714.26-8.65 714.26-12.2L714.26-12.2Q714.26-15.58 715.63-18.5 716.99-21.43 719.49-23.21 721.99-25 725.41-25L725.41-25Q727.86-25 730.15-23.94 732.44-22.88 733.86-20.4L733.86-20.4 732.91-19.75 732.91-37.5 737.41-37.5 737.41 0 733.41 0 732.56-5.2 733.71-4.4Q732.64-1.98 730.34-0.74 728.04 0.5 725.41 0.5ZM726.21-3.5L726.21-3.5Q727.91-3.5 729.58-4.38 731.24-5.25 732.33-7.16 733.41-9.08 733.41-12.2L733.41-12.2Q733.41-15.1 732.33-17.06 731.24-19.03 729.58-20.01 727.91-21 726.21-21L726.21-21Q723.91-21 722.26-19.85 720.61-18.7 719.74-16.71 718.86-14.73 718.86-12.2L718.86-12.2Q718.86-9.83 719.74-7.85 720.61-5.88 722.26-4.69 723.91-3.5 726.21-3.5ZM747.96 0L743.46 0 743.46-24.5 747.96-24.5 747.96 0ZM747.96-30L743.46-30 743.46-35 747.96-35 747.96-30ZM765.31 0.5L765.31 0.5Q761.16 0.5 758.35-1.19 755.53-2.88 754.1-5.74 752.66-8.6 752.66-12.1L752.66-12.1Q752.66-15.75 754.05-18.68 755.43-21.6 758.31-23.3 761.18-25 765.66-25L765.66-25Q767.58-25 769.3-24.61 771.01-24.23 772.36-23.55L772.36-23.55 771.66-19.6Q770.28-20.25 768.75-20.63 767.21-21 765.56-21L765.56-21Q761.51-21 759.38-18.7 757.26-16.4 757.26-12.3L757.26-12.3Q757.26-8.3 759.28-5.88 761.31-3.45 765.46-3.45L765.46-3.45Q767.16-3.45 768.72-3.85 770.28-4.25 771.71-4.95L771.71-4.95 772.31-1.35Q771.31-0.65 769.38-0.08 767.46 0.5 765.31 0.5ZM789.26 0.5L785.21 0.5Q782.88 0.5 781.48-0.35 780.08-1.2 779.44-2.54 778.81-3.88 778.81-5.35L778.81-5.35 778.81-21 774.61-21 775.01-24.5 778.81-24.5 778.81-30.55 783.31-31 783.31-24.5 789.76-24.5 789.76-21 783.31-21 783.31-8.1Q783.31-5.75 783.58-4.7 783.86-3.65 784.94-3.38 786.03-3.1 788.46-3.1L788.46-3.1 789.61-3.1 789.26 0.5ZM798.1 0L793.6 0 793.6-24.5 798.1-24.5 798.1 0ZM798.1-30L793.6-30 793.6-35 798.1-35 798.1-30ZM816 0L810.95 0 801.6-24.5 806.6-24.5 813.45-4.95 820.25-24.5 825.3-24.5 816 0ZM840.1 0.5L840.1 0.5Q835.77 0.5 832.82-1.28 829.87-3.05 828.36-5.99 826.85-8.93 826.85-12.45L826.85-12.45Q826.85-15.88 828.26-18.73 829.67-21.58 832.36-23.29 835.05-25 838.85-25L838.85-25Q841.9-25 844.29-23.79 846.67-22.58 848.04-20.26 849.4-17.95 849.4-14.65L849.4-14.65Q849.4-14.13 849.36-13.51 849.32-12.9 849.2-12.25L849.2-12.25 831.45-12.25Q831.77-8.85 833.07-6.95 834.37-5.05 836.35-4.28 838.32-3.5 840.65-3.5L840.65-3.5Q842.35-3.5 844.2-3.85 846.05-4.2 847.7-4.95L847.7-4.95 848.3-1.4Q846.87-0.78 844.82-0.14 842.77 0.5 840.1 0.5ZM831.85-15.35L831.85-15.35 844.75-15.35Q844.75-17.07 844.1-18.35 843.45-19.63 842.12-20.31 840.8-21 838.75-21L838.75-21Q835.75-21 834.14-19.51 832.52-18.03 831.85-15.35ZM875.14 0L870.09 0 862.74-24.5 868.04-24.5 872.74-4.95 877.94-23.75 882.59-23.75 887.84-4.95 892.54-24.5 897.84-24.5 890.44 0 885.39 0 880.29-18.1 875.14 0ZM906.94 0.5L906.94 0.5Q904.67 0.5 902.97-0.43 901.27-1.35 900.33-2.95 899.39-4.55 899.39-6.6L899.39-6.6Q899.39-8.68 900.3-10.16 901.22-11.65 902.75-12.64 904.29-13.63 906.19-14.21 908.09-14.8 910.13-15.06 912.17-15.33 914.04-15.35L914.04-15.35Q914.04-18.85 912.67-19.93 911.29-21 908.69-21L908.69-21Q907.32-21 905.75-20.58 904.19-20.15 902.24-18.8L902.24-18.8 901.59-22.45Q903.07-23.58 905.27-24.29 907.47-25 909.89-25L909.89-25Q912.99-25 914.89-23.91 916.79-22.83 917.67-20.25 918.54-17.68 918.54-13.25L918.54-13.25 918.54-8.25Q918.54-6.5 918.7-5.36 918.87-4.23 919.45-3.66 920.04-3.1 921.34-3.1L921.34-3.1 921.79-3.1 921.09 0.5 920.74 0.5Q918.57 0.5 917.38 0.08 916.19-0.35 915.57-1.15 914.94-1.95 914.44-3.1L914.44-3.1Q913.07-1.5 911.19-0.5 909.32 0.5 906.94 0.5ZM907.79-3.1L907.79-3.1Q909.59-3.1 911.28-4 912.97-4.9 914.04-6.4L914.04-6.4 914.04-12.25Q910.47-12.13 908.25-11.55 906.04-10.98 905.02-9.83 903.99-8.68 903.99-6.85L903.99-6.85Q903.99-4.88 905.05-3.99 906.12-3.1 907.79-3.1ZM931.09 12.1L926.09 12.1 931.74-1.1 921.54-24.5 926.54-24.5 934.19-6.3 941.09-24.5 946.09-24.5 931.09 12.1Z" opacity="1" transform="matrix(1,0,0,1,0,0)" fill="#ffffff" class="slogan-text-1" data-fill-palette-color="secondary" id="text-1"></path></svg></g></svg></g></svg></g></svg></g><g transform="matrix(1,0,0,1,85.14445059657386,0)"><svg viewBox="0 0 225.23109880685226 225.23109880685226" height="225.23109880685226" width="225.23109880685226"><g><svg></svg></g><g id="icon-0"><svg viewBox="0 0 225.23109880685226 225.23109880685226" height="225.23109880685226" width="225.23109880685226"><g><path d="M0 112.616c0-62.196 50.42-112.616 112.616-112.616 62.196 0 112.616 50.42 112.615 112.616 0 62.196-50.42 112.616-112.615 112.615-62.196 0-112.616-50.42-112.616-112.615zM112.616 217.504c57.928 0 104.889-46.96 104.888-104.888 0-57.928-46.96-104.889-104.888-104.889-57.928 0-104.889 46.96-104.889 104.889 0 57.928 46.96 104.889 104.889 104.888z" data-fill-palette-color="tertiary" fill="#ffffff" stroke="transparent"></path></g><g transform="matrix(1,0,0,1,49.372778794902594,56.49397850935618)"><svg viewBox="0 0 126.48554121704707 112.2431417881399" height="112.2431417881399" width="126.48554121704707"><g><svg xmlns="http://www.w3.org/2000/svg" data-name="Layer 1" viewBox="0.9998807844610509 6.5 98.00552037655933 86.97" x="0" y="0" height="112.2431417881399" width="126.48554121704707" class="icon-cg-0" data-fill-palette-color="accent" id="cg-0"><path d="M29.59 84.34a14.88 14.88 0 0 1 11.1 5l0.35 0.36A12.52 12.52 0 0 0 42.5 91c0.21 0.15 0.41 0.3 0.6 0.42a12.37 12.37 0 0 0 1.41 0.81l0.28 0.13c0.26 0.13 0.52 0.24 0.8 0.34a9.86 9.86 0 0 0 1.05 0.33c0.24 0.07 0.56 0.16 0.94 0.23a12.12 12.12 0 0 0 1.64 0.21l0.77 0a12.43 12.43 0 0 0 2.46-0.25c0.32-0.06 0.59-0.13 0.73-0.18a11 11 0 0 0 1.24-0.39l0.09 0 0.62-0.27 0.25-0.12a12.29 12.29 0 0 0 1.53-0.87l0.53-0.37A12.64 12.64 0 0 0 59 89.61l0.33-0.36a14.59 14.59 0 0 1 11-4.91h4.08a2.5 2.5 0 1 0 0-5H70.38A19.58 19.58 0 0 0 55.57 86l-0.09 0.1-0.08 0.08a7.66 7.66 0 0 1-1 0.85l-0.3 0.21a7.55 7.55 0 0 1-1 0.54l-0.16 0.08-0.39 0.17a6.72 6.72 0 0 1-0.75 0.23l-0.43 0.1a7.44 7.44 0 0 1-1.47 0.15l-0.44 0a7.23 7.23 0 0 1-1-0.13c-0.21 0-0.38-0.09-0.59-0.15a6 6 0 0 1-0.61-0.19l-0.45-0.19-0.18-0.09a7.51 7.51 0 0 1-0.87-0.5L45.5 87a7.79 7.79 0 0 1-0.9-0.8l-0.19-0.2a19.88 19.88 0 0 0-14.82-6.63H6V22.47h6.24V69.55a2.5 2.5 0 0 0 2.5 2.5H30.29a23.93 23.93 0 0 1 17.83 8 2.5 2.5 0 1 0 3.73-3.33A28.93 28.93 0 0 0 30.29 67H17.24V11.53H30.29a23.92 23.92 0 0 1 17.19 7.31v5.71a2.5 2.5 0 0 0 5 0V18.83a23.92 23.92 0 0 1 17.19-7.31H82.73V32.28a2.5 2.5 0 0 0 5 0V22.47H94V65.55a2.5 2.5 0 0 0 5 0V21.25a3.78 3.78 0 0 0-3.78-3.78H87.73V9a2.5 2.5 0 0 0-2.5-2.5H69.68A28.94 28.94 0 0 0 50 14.27 28.94 28.94 0 0 0 30.29 6.53H14.74A2.5 2.5 0 0 0 12.24 9v8.44H4.78A3.78 3.78 0 0 0 1 21.25V80.57a3.78 3.78 0 0 0 3.78 3.78Z" fill="#ffffff" data-fill-palette-color="accent"></path><path d="M82.41 61.15a22.48 22.48 0 1 0-9.69 9.69L87.3 85.42A6.85 6.85 0 1 0 97 75.73ZM50.08 63.22a17.48 17.48 0 1 1 12.36 5.12A17.36 17.36 0 0 1 50.08 63.22ZM93.46 81.88a1.9 1.9 0 0 1-2.62 0L77 68c0.47-0.4 0.93-0.81 1.37-1.25s0.85-0.9 1.25-1.37L93.46 79.26a1.85 1.85 0 0 1 0 2.62Z" fill="#ffffff" data-fill-palette-color="accent"></path></svg></g></svg></g></svg></g></svg></g><g></g></svg></g><defs></defs></svg><rect width="254.8054422083364" height="247.2" fill="none" stroke="none" visibility="hidden"></rect></g></svg></g></svg>